<?xml version="1.0" encoding="utf-8"?>
<!-- Generator: Adobe Illustrator 23.0.1, SVG Export Plug-In . SVG Version: 6.00 Build 0)  -->
<svg version="1.1" id="Livello_1" xmlns="http://www.w3.org/2000/svg" xmlns:xlink="http://www.w3.org/1999/xlink" x="0px" y="0px"
	 viewBox="0 0 1366 768" style="enable-background:new 0 0 1366 768;" xml:space="preserve">
<style type="text/css">
	.st0{fill:#FF931E;}
	.st1{fill:none;stroke:#000000;stroke-miterlimit:10;}
</style>
<g>
	<path class="st0" d="M541,446.7"/>
	<g>
		<path class="st1" d="M541,446.7"/>
	</g>
</g>
<g>
	<path class="st0" d="M764.9,316.3"/>
	<g>
		<path class="st1" d="M764.9,316.3"/>
	</g>
</g>
<g>
	<path class="st0" d="M169.7,395.7"/>
	<g>
		<path class="st1" d="M169.7,395.7"/>
	</g>
</g>
<g>
	<path class="st0" d="M321.3,475.1"/>
	<g>
		<path class="st1" d="M321.3,475.1"/>
	</g>
</g>
<g>
	<path class="st0" d="M397.8,259.7"/>
	<g>
		<path class="st1" d="M397.8,259.7"/>
	</g>
</g>
<g>
	<path class="st0" d="M514,697.5"/>
	<g>
		<path class="st1" d="M514,697.5"/>
	</g>
</g>
<circle class="st0" cx="144" cy="611" r="21"/>
<circle class="st0" cx="208" cy="649" r="15"/>
<circle class="st0" cx="82" cy="513" r="16"/>
<circle class="st0" cx="58" cy="698" r="24"/>
<circle class="st0" cx="34" cy="584" r="15"/>
<circle class="st0" cx="154" cy="722" r="16"/>
<circle class="st0" cx="208" cy="518" r="11"/>
<circle class="st0" cx="248" cy="698" r="21"/>
<circle class="st0" cx="283" cy="611" r="17"/>
<circle class="st0" cx="327" cy="658" r="28"/>
<circle class="st0" cx="355" cy="719" r="15"/>
<circle class="st0" cx="430" cy="649" r="21"/>
<circle class="st0" cx="370" cy="546" r="15"/>
<circle class="st0" cx="494" cy="561" r="20"/>
<circle class="st0" cx="514" cy="649" r="9"/>
<circle class="st0" cx="466" cy="704" r="18"/>
<circle class="st0" cx="598" cy="713" r="21"/>
<circle class="st0" cx="577" cy="590" r="21"/>
<circle class="st0" cx="683" cy="634" r="15"/>
<circle class="st0" cx="698" cy="706" r="28"/>
<circle class="st0" cx="754" cy="634" r="11"/>
<circle class="st0" cx="800" cy="678" r="20"/>
<circle class="st0" cx="1291" cy="670" r="22"/>
<circle class="st0" cx="1218" cy="581" r="18"/>
<circle class="st0" cx="1291" cy="513" r="16"/>
<circle class="st0" cx="1121" cy="590" r="26"/>
<circle class="st0" cx="1167" cy="658" r="16"/>
<circle class="st0" cx="1200" cy="713" r="25"/>
<circle class="st0" cx="1028" cy="664" r="22"/>
<circle class="st0" cx="1071" cy="719" r="15"/>
<circle class="st0" cx="891" cy="698" r="21"/>
<circle class="st0" cx="931" cy="599" r="17"/>
<circle class="st0" cx="960" cy="719" r="15"/>
<circle class="st0" cx="812" cy="581" r="25"/>
</svg>
